<svg width="18" height="15" viewBox="0 0 18 15" fill="none" xmlns="http://www.w3.org/2000/svg">
<path d="M4.1705 0C3.15717 0 2.27482 0.669643 2.0301 1.62388L0.0654871 9.25446C0.0206801 9.42522 0 9.59933 0 9.77344V12.8571C0 14.0391 0.9892 15 2.20588 15H15.4412C16.6579 15 17.6471 14.0391 17.6471 12.8571V9.77344C17.6471 9.59933 17.6264 9.42522 17.5816 9.25446L15.617 1.62388C15.3722 0.669643 14.4899 0 13.4766 0H4.1705ZM4.1705 2.14286H13.4766L15.131 8.57143H13.3663C12.9492 8.57143 12.5666 8.79911 12.3805 9.16406L11.8876 10.1217C11.7015 10.4833 11.3189 10.7143 10.9019 10.7143H6.74862C6.33157 10.7143 5.94899 10.4866 5.76287 10.1217L5.26999 9.16406C5.08387 8.80246 4.70129 8.57143 4.28424 8.57143H2.51608L4.1705 2.14286Z" fill="white"/>
</svg>
